<svg width="56" height="57" viewBox="0 0 56 57" fill="none" xmlns="http://www.w3.org/2000/svg">
                <circle cx="30.3614" cy="7.30596" r="1.95" stroke="#2151C5" stroke-width="1.5"/>
                <path d="M41.3945 42.6404C44.934 35.4791 49.9512 22.9253 41.7037 30.0005C31.3943 38.8445 16.1131 51.2551 23.4477 39.2232C30.7822 27.1913 42.7607 5.13017 31.676 16.1233C20.5913 27.1165 4.27244 37.1218 11.4314 26.1572C18.5903 15.1926 22.9417 5.91629 13.261 14.5264" stroke="#2151C5" stroke-width="6" stroke-linecap="round"/>
                <path d="M15.5052 13.2525C11.4623 20.1422 5.55974 32.3048 14.2924 25.8379C25.2081 17.7542 41.3381 6.46871 33.1615 17.945C24.9848 29.4213 11.4586 50.5688 23.3014 40.397C35.1443 30.2251 52.1372 21.413 44.2121 31.8373C36.287 42.2616 31.2831 51.2028 41.555 43.3073" stroke="#2151C5" stroke-opacity="0.35" stroke-width="6" stroke-linecap="round"/>
                <circle cx="45.6613" cy="16.006" r="3.3" fill="#2151C5"/>
                <circle cx="9.21123" cy="41.956" r="3.45" fill="#2151C5"/>
                <circle cx="49.1114" cy="45.556" r="1.95" fill="#2151C5"/>
                <circle cx="29.0113" cy="51.256" r="2.4" stroke="#2151C5" stroke-width="1.5"/>
                <circle cx="9.21128" cy="7.75596" r="2.4" stroke="#2151C5" stroke-width="1.5"/>
            </svg>        