<svg width="420" height="153" viewBox="0 0 420 153" fill="none" xmlns="http://www.w3.org/2000/svg">
<circle cx="75" cy="51" r="8" fill="#2151C5"/>
<circle cx="143.5" cy="75.5" r="12.5" stroke="#2151C5" stroke-width="8"/>
<circle cx="344.5" cy="50.5" r="11.5" stroke="#2151C5" stroke-width="8"/>
<circle cx="227.5" cy="46.5" r="7.5" fill="#2151C5"/>
<circle cx="189.5" cy="109.5" r="7.5" fill="#2151C5"/>
<circle cx="170.5" cy="35.5" r="7.5" fill="#2151C5"/>
<circle cx="280.5" cy="24.5" r="11.5" fill="#2151C5"/>
<circle cx="105.5" cy="65.5" r="11.5" fill="#2151C5"/>
<circle cx="223" cy="112" r="16" stroke="#2151C5" stroke-width="8"/>
<path d="M10 99.2196C44.0725 57.2053 112.218 -17.392 112.218 20.3336C112.218 67.4905 100.813 169.082 123.2 136.771C145.586 104.459 228.374 -20.7104 228.374 28.7753C228.374 78.261 198.807 165.298 237.666 119.887C276.526 74.4768 336.927 18.0048 341.573 42.7477C346.22 67.4905 286.663 157.729 341.573 119.887C396.484 82.0452 407.888 43.3299 410 77.3877" stroke="#2151C5" stroke-opacity="0.35" stroke-width="20" stroke-linecap="round" stroke-linejoin="round"/>
</svg>
